<svg viewBox="0 0 512 512" xmlns="http://www.w3.org/2000/svg" fill-rule="evenodd" clip-rule="evenodd" stroke-linecap="round"><g opacity=".7" fill-rule="nonzero"><path d="M170.917 50.63c-6.361 9.369-11.417 20.237-14.748 32.607-9.565 35.527-37.404 63.367-72.93 72.932-12.37 3.33-23.24 8.386-32.61 14.748C37.35 101.458 101.46 37.351 170.917 50.63z" fill="#ffd819"/><path d="M50.63 170.916c2.127 11.123 6.238 22.384 12.63 33.487 18.356 31.884 18.356 71.256 0 103.14-6.392 11.103-10.504 22.363-12.63 33.487-58.504-39.725-58.504-130.389 0-170.114z" fill="#ffe029"/><path d="M170.917 461.316c-6.361-9.369-11.417-20.238-14.748-32.608-9.565-35.527-37.404-63.366-72.93-72.931-12.37-3.331-23.24-8.387-32.61-14.75-13.28 69.46 50.83 133.568 120.288 120.29z" fill="#ffc141"/><path d="M341.03 461.315c-11.122-2.126-22.382-6.238-33.485-12.629-31.884-18.357-71.256-18.357-103.14 0-11.103 6.391-22.364 10.504-33.487 12.63 39.724 58.504 130.389 58.504 170.113 0z" fill="#ffb655"/><path d="M461.318 341.029c-9.368 6.362-20.237 11.417-32.607 14.748-35.527 9.565-63.367 37.405-72.932 72.932-3.33 12.369-8.386 23.238-14.748 32.607 69.458 13.28 133.566-50.83 120.287-120.287z" fill="#ffb35b"/><path d="M461.318 170.917c-2.126 11.123-6.237 22.383-12.63 33.486-18.356 31.884-18.356 71.256 0 103.14 6.393 11.103 10.504 22.363 12.63 33.486 58.504-39.724 58.504-130.386 0-170.112z" fill="#ffb656"/><path d="M341.03 50.629c6.363 9.37 11.419 20.238 14.749 32.608 9.565 35.527 37.405 63.367 72.932 72.932 12.37 3.33 23.239 8.386 32.607 14.747 13.28-69.458-50.83-133.565-120.287-120.287z" fill="#ffc042"/><path d="M170.918 50.63c11.123 2.126 22.383 6.237 33.486 12.63 31.884 18.356 71.256 18.356 103.14 0 11.103-6.393 22.363-10.504 33.486-12.63-39.726-58.504-130.388-58.504-170.112 0z" fill="#ffce2a"/></g><path d="M135.155 69.514c2.997-11.133 7.547-20.916 13.273-29.348 10.01 1.914 20.145 5.614 30.136 11.367 28.696 16.521 64.131 16.521 92.827 0 9.992-5.753 20.127-9.453 30.138-11.367 5.726 8.432 10.276 18.215 13.273 29.348 8.609 31.974 33.665 57.029 65.639 65.638 11.132 2.998 20.915 7.547 29.347 13.273-1.914 10.011-5.614 20.146-11.367 30.137-16.522 28.696-16.522 64.132 0 92.828 5.753 9.991 9.453 20.126 11.367 30.137-8.432 5.726-18.215 10.275-29.347 13.273-31.974 8.609-57.03 33.664-65.639 65.638-2.997 11.133-7.547 20.916-13.273 29.348-10.011-1.914-20.146-5.614-30.138-11.367-28.696-16.521-64.131-16.521-92.827 0-9.991 5.753-20.126 9.453-30.136 11.367-5.726-8.432-10.276-18.215-13.273-29.348-8.609-31.974-33.665-57.029-65.639-65.638-11.133-2.998-20.916-7.548-29.348-13.274 1.914-10.01 5.614-20.145 11.366-30.136 16.521-28.697 16.521-64.131 0-92.828-5.752-9.991-9.452-20.125-11.366-30.136 8.432-5.726 18.215-10.276 29.348-13.274 31.974-8.609 57.03-33.664 65.639-65.638z" fill="url(#prefix___Radial1)" transform="matrix(1.1111 0 0 1.1111 6 6)"/><path d="M364.048 321.429c-4.156 2.399-9.477.973-11.876-3.183l-8.695-15.06c-2.4-4.156-.974-9.477 3.182-11.877 4.156-2.4 9.477-.973 11.877 3.183l8.695 15.06c2.4 4.156.973 9.477-3.183 11.877zM342.314 321.428c-4.155 2.4-9.477.974-11.876-3.182l-8.695-15.06c-2.4-4.156-.974-9.478 3.182-11.877 4.156-2.4 9.477-.974 11.877 3.182l8.695 15.06c2.4 4.157.973 9.478-3.183 11.877z" fill="#ffa17a"/><path d="M187.984 321.429c-4.156 2.399-9.477.973-11.876-3.183l-8.695-15.06c-2.4-4.156-.974-9.477 3.182-11.877 4.156-2.4 9.477-.973 11.877 3.183l8.695 15.06c2.4 4.156.973 9.477-3.183 11.877zM166.248 321.429c-4.156 2.399-9.478.973-11.877-3.183l-8.695-15.06c-2.4-4.156-.974-9.477 3.182-11.877 4.156-2.4 9.478-.973 11.877 3.183l8.695 15.06c2.4 4.156.974 9.477-3.182 11.877z" fill="#ffab89"/><path d="M366.282 206.547c-1.242 4.635-6.013 7.39-10.649 6.148l-16.797-4.501c-4.636-1.242-7.39-6.013-6.148-10.648 1.242-4.636 6.013-7.39 10.648-6.148l16.798 4.5c4.635 1.243 7.39 6.014 6.148 10.649z" fill="#ffa17a"/><path d="M179.347 197.545c1.242 4.636-1.513 9.407-6.148 10.649l-16.797 4.5c-4.636 1.243-9.407-1.512-10.649-6.147-1.242-4.636 1.513-9.407 6.148-10.649l16.797-4.5c4.636-1.243 9.407 1.512 10.649 6.147z" fill="#ffab89"/><g fill="none" stroke-width="12"><path d="M236.969 286.961c4.586 5.08 12.719 8.695 19.563 8.695 6.844 0 14.977-3.615 19.562-8.695" stroke="#8b2c0c" stroke-opacity=".05" stroke-width="13.33332"/><path d="M236.969 284.788c4.586 5.08 12.719 8.694 19.563 8.694 6.844 0 14.977-3.614 19.562-8.694" stroke="#d05b34" stroke-width="13.33332"/></g><g><g transform="matrix(1.1111 0 0 1.1111 6 6)"><path d="M141.637 219.887a7.828 7.828 0 01-11.066 0l-11.067-11.067a7.828 7.828 0 010-11.066 7.828 7.828 0 0111.066 0l11.067 11.067a7.828 7.828 0 010 11.066z"/><path d="M176.571 225.478v.001c0 16.195-13.149 29.344-29.344 29.344h-.001c-16.195 0-29.344-13.149-29.344-29.344v-.001c0-16.195 13.149-29.344 29.344-29.344h.001c16.195 0 29.344 13.149 29.344 29.344z"/><path d="M176.571 227.433v.001c0 16.195-13.149 29.344-29.344 29.344h-.001c-16.195 0-29.344-13.149-29.344-29.344v-.001c0-16.195 13.149-29.344 29.344-29.344h.001c16.195 0 29.344 13.149 29.344 29.344z" fill-opacity=".05"/><path d="M125.086 233.301c3.223-9.117 11.918-15.649 22.139-15.649 10.222 0 18.917 6.533 22.14 15.652-3.223 9.116-11.919 15.648-22.139 15.648-10.222 0-18.918-6.533-22.14-15.651z" fill="#784012"/><path d="M166.831 238.399a23.368 23.368 0 003.873-12.921c0-12.965-10.511-23.476-23.476-23.476s-23.475 10.511-23.475 23.476c0 4.28 1.145 8.293 3.146 11.748 4.201-6.359 11.412-10.555 19.603-10.555 8.685 0 16.269 4.717 20.329 11.728z" fill-opacity=".35"/><path d="M160.92 225.478c0 7.558-6.136 13.694-13.694 13.694-7.558 0-13.694-6.136-13.694-13.694 0-7.558 6.136-13.694 13.694-13.694 7.558 0 13.694 6.136 13.694 13.694z"/><circle cx="140.814" cy="211.609" r="11.738" fill="#fff"/><circle cx="162.848" cy="227.64" r="5.869" fill="#fff"/><circle cx="155.525" cy="239.853" r="3.913" fill="#fff"/></g><g transform="matrix(1.1111 0 0 1.1111 6 6)"><path d="M309.514 219.888a7.828 7.828 0 010-11.067l11.067-11.066a7.828 7.828 0 0111.066 0 7.828 7.828 0 010 11.066l-11.066 11.067a7.828 7.828 0 01-11.067 0z"/><path d="M333.074 227.434v.001c0 16.195-13.149 29.344-29.344 29.344h-.001c-16.195 0-29.344-13.149-29.344-29.344v-.001c0-16.195 13.149-29.344 29.344-29.344h.001c16.195 0 29.344 13.149 29.344 29.344z" fill-opacity=".05"/><path d="M333.074 225.478v.001c0 16.195-13.149 29.344-29.344 29.344h-.001c-16.195 0-29.344-13.149-29.344-29.344v-.001c0-16.195 13.149-29.344 29.344-29.344h.001c16.195 0 29.344 13.149 29.344 29.344z"/><path d="M281.629 233.41c3.035-9.451 11.896-16.29 22.355-16.29 10.182 0 18.849 6.482 22.102 15.544-3.035 9.45-11.897 16.29-22.355 16.29-10.182 0-18.85-6.482-22.102-15.544z" fill="#784012"/><path d="M323.862 237.557a23.36 23.36 0 003.342-12.078c0-12.965-10.511-23.476-23.476-23.476s-23.475 10.511-23.475 23.476c0 4.589 1.317 8.87 3.593 12.487 4.105-6.829 11.586-11.397 20.134-11.397 8.376 0 15.728 4.387 19.882 10.988z" fill-opacity=".35"/><path d="M317.423 225.479c0 7.558-6.136 13.694-13.694 13.694-7.558 0-13.694-6.136-13.694-13.694 0-7.558 6.136-13.694 13.694-13.694 7.558 0 13.694 6.136 13.694 13.694z"/><circle cx="297.318" cy="211.609" r="11.738" fill="#fff"/><circle cx="319.352" cy="227.64" r="5.869" fill="#fff"/><circle cx="312.029" cy="239.853" r="3.913" fill="#fff"/></g></g><defs><radialGradient id="prefix___Radial1" cx="0" cy="0" r="1" gradientUnits="userSpaceOnUse" gradientTransform="scale(522.888) rotate(45 -.054 .13)"><stop offset="0" stop-color="#ffe600"/><stop offset="1" stop-color="#ffa573"/></radialGradient></defs></svg>