{
	"asset":{
		"generator":"Khronos glTF Blender I/O v4.5.48",
		"version":"2.0"
	},
	"scene":0,
	"scenes":[
		{
			"name":"Scene",
			"nodes":[
				0
			]
		}
	],
	"nodes":[
		{
			"mesh":0,
			"name":"stempel_regenlaars",
			"scale":[
				0.10000002384185791,
				0.10000002384185791,
				0.10000002384185791
			]
		}
	],
	"materials":[
		{
			"doubleSided":true,
			"name":"Material",
			"pbrMetallicRoughness":{
				"baseColorFactor":[
					0.8004242181777954,
					0.21804317831993103,
					0.018769489601254463,
					1
				],
				"metallicFactor":0,
				"roughnessFactor":0.5
			}
		}
	],
	"meshes":[
		{
			"name":"stempel_regenlaars",
			"primitives":[
				{
					"attributes":{
						"POSITION":0,
						"NORMAL":1
					},
					"indices":2,
					"material":0
				}
			]
		}
	],
	"accessors":[
		{
			"bufferView":0,
			"componentType":5126,
			"count":45913,
			"max":[
				25.005844116210938,
				38.75,
				24.97509765625
			],
			"min":[
				-24.994155883789062,
				0,
				-25.02490234375
			],
			"type":"VEC3"
		},
		{
			"bufferView":1,
			"componentType":5126,
			"count":45913,
			"type":"VEC3"
		},
		{
			"bufferView":2,
			"componentType":5123,
			"count":137622,
			"type":"SCALAR"
		}
	],
	"bufferViews":[
		{
			"buffer":0,
			"byteLength":550956,
			"byteOffset":0,
			"target":34962
		},
		{
			"buffer":0,
			"byteLength":550956,
			"byteOffset":550956,
			"target":34962
		},
		{
			"buffer":0,
			"byteLength":275244,
			"byteOffset":1101912,
			"target":34963
		}
	],
	"buffers":[
		{
			"byteLength":1377156,
			"uri":"stempel.bin"
		}
	]
}
