<svg xmlns="http://www.w3.org/2000/svg" width="277.839" height="69.52" viewBox="0 0 277.839 69.52">
  <g id="Layer_2" data-name="Layer 2" transform="translate(0.002 0.007)">
    <g id="Layer_1" data-name="Layer 1" transform="translate(-0.002 -0.007)">
      <path id="Path_28638" data-name="Path 28638" d="M375.767,215.318a4.032,4.032,0,0,1-1.487-.758l.559-1.255a4.446,4.446,0,0,0,1.312.691,4.793,4.793,0,0,0,1.562.269,2.706,2.706,0,0,0,1.449-.309.943.943,0,0,0,.479-.823.806.806,0,0,0-.269-.616,1.882,1.882,0,0,0-.677-.379c-.269-.091-.645-.194-1.118-.312a12.949,12.949,0,0,1-1.613-.47,2.645,2.645,0,0,1-1.056-.742,1.987,1.987,0,0,1-.444-1.36,2.323,2.323,0,0,1,.392-1.312,2.656,2.656,0,0,1,1.183-.941,4.787,4.787,0,0,1,1.933-.347,6.309,6.309,0,0,1,1.567.2,4.3,4.3,0,0,1,1.331.573l-.511,1.255a5.056,5.056,0,0,0-1.193-.511,4.481,4.481,0,0,0-1.207-.172,2.516,2.516,0,0,0-1.422.323,1,1,0,0,0-.468.858.771.771,0,0,0,.269.61,1.946,1.946,0,0,0,.677.374c.269.089.645.194,1.118.309a12.037,12.037,0,0,1,1.591.468,2.749,2.749,0,0,1,1.075.739,1.956,1.956,0,0,1,.441,1.344,2.29,2.29,0,0,1-.392,1.3,2.648,2.648,0,0,1-1.188.933,4.8,4.8,0,0,1-1.938.349A6.637,6.637,0,0,1,375.767,215.318Z" transform="translate(-273.668 -151.1)" fill="#00bed8"/>
      <path id="Path_28639" data-name="Path 28639" d="M406.08,214.982a4.3,4.3,0,0,1-1.68-1.613,4.618,4.618,0,0,1,0-4.589,4.253,4.253,0,0,1,1.68-1.613,5.269,5.269,0,0,1,4.8,0,4.3,4.3,0,0,1,1.68,1.6,4.656,4.656,0,0,1,0,4.6,4.3,4.3,0,0,1-1.68,1.6,5.269,5.269,0,0,1-4.8,0Zm3.965-1.231a2.817,2.817,0,0,0,1.094-1.094,3.312,3.312,0,0,0,0-3.148,2.817,2.817,0,0,0-1.094-1.094,3.325,3.325,0,0,0-3.134,0,2.852,2.852,0,0,0-1.094,1.094,3.312,3.312,0,0,0,0,3.148,2.852,2.852,0,0,0,1.094,1.094A3.347,3.347,0,0,0,410.045,213.751Z" transform="translate(-295.245 -151.054)" fill="#00bed8"/>
      <path id="Path_28640" data-name="Path 28640" d="M446.693,208.465v2.648h4.2v1.368h-4.2v3.333H445.08v-8.7h6.349v1.344Z" transform="translate(-325.436 -151.434)" fill="#00bed8"/>
      <path id="Path_28641" data-name="Path 28641" d="M473.484,208.478H470.6V207.11h7.387v1.368H475.1v7.339H473.49Z" transform="translate(-344.096 -151.434)" fill="#00bed8"/>
      <path id="Path_28642" data-name="Path 28642" d="M512.614,207.11l-2.887,8.707h-1.715l-2.151-6.452-2.188,6.452h-1.728l-2.884-8.707h1.677l2.164,6.616,2.253-6.616h1.492l2.2,6.653,2.226-6.653Z" transform="translate(-364.905 -151.434)" fill="#00bed8"/>
      <path id="Path_28643" data-name="Path 28643" d="M555.671,213.8h-4.352l-.852,2.016H548.8l3.917-8.707h1.591l3.927,8.707h-1.694Zm-.538-1.269-1.643-3.8-1.629,3.8Z" transform="translate(-401.274 -151.434)" fill="#00bed8"/>
      <path id="Path_28644" data-name="Path 28644" d="M593.7,215.813l-1.777-2.554a3.356,3.356,0,0,1-.336.013h-1.973v2.538H588v-8.7h3.583a4.8,4.8,0,0,1,1.97.374,2.858,2.858,0,0,1,1.288,1.075,2.994,2.994,0,0,1,.446,1.653,2.941,2.941,0,0,1-.479,1.691,2.863,2.863,0,0,1-1.374,1.059l2,2.86Zm-.591-6.892a2.5,2.5,0,0,0-1.613-.446h-1.882v3.47h1.882a2.473,2.473,0,0,0,1.613-.454,1.583,1.583,0,0,0,.538-1.288A1.567,1.567,0,0,0,593.107,208.921Z" transform="translate(-429.937 -151.431)" fill="#00bed8"/>
      <path id="Path_28645" data-name="Path 28645" d="M628.359,214.459v1.357h-6.53V207.11h6.355v1.344h-4.739v2.263h4.2v1.344h-4.2v2.4Z" transform="translate(-454.673 -151.434)" fill="#00bed8"/>
      <path id="Path_28646" data-name="Path 28646" d="M665.6,207.107h3.8a5.462,5.462,0,0,1,2.476.538,4,4,0,0,1,1.677,1.53,4.661,4.661,0,0,1,0,4.57,3.989,3.989,0,0,1-1.677,1.53,5.465,5.465,0,0,1-2.476.538h-3.8Zm3.728,7.339a3.688,3.688,0,0,0,1.686-.368,2.617,2.617,0,0,0,1.121-1.043,3.374,3.374,0,0,0,0-3.148,2.6,2.6,0,0,0-1.121-1.043,3.689,3.689,0,0,0-1.686-.368h-2.113v5.97Z" transform="translate(-486.677 -151.431)" fill="#00bed8"/>
      <path id="Path_28647" data-name="Path 28647" d="M710.337,214.459v1.357H703.81V207.11h6.355v1.344h-4.739v2.263h4.2v1.344h-4.2v2.4Z" transform="translate(-514.615 -151.434)" fill="#00bed8"/>
      <path id="Path_28648" data-name="Path 28648" d="M738.964,207.11l-3.806,8.707h-1.591l-3.806-8.707h1.753l2.9,6.72,2.925-6.72Z" transform="translate(-533.59 -151.434)" fill="#00bed8"/>
      <path id="Path_28649" data-name="Path 28649" d="M773.9,214.459v1.357H767.37V207.11h6.352v1.344h-4.734v2.263h4.2v1.344h-4.2v2.4Z" transform="translate(-561.09 -151.434)" fill="#00bed8"/>
      <path id="Path_28650" data-name="Path 28650" d="M798.326,207.11h1.613v7.339h4.554v1.368H798.31Z" transform="translate(-583.712 -151.434)" fill="#00bed8"/>
      <path id="Path_28651" data-name="Path 28651" d="M825.458,214.982a4.3,4.3,0,0,1-1.68-1.613,4.637,4.637,0,0,1,0-4.589,4.252,4.252,0,0,1,1.68-1.613,5.274,5.274,0,0,1,4.8,0,4.3,4.3,0,0,1,1.677,1.6,4.64,4.64,0,0,1,0,4.6,4.3,4.3,0,0,1-1.677,1.6,5.274,5.274,0,0,1-4.8,0Zm3.968-1.231a2.852,2.852,0,0,0,1.094-1.094,3.312,3.312,0,0,0,0-3.148,2.852,2.852,0,0,0-1.094-1.094,3.325,3.325,0,0,0-3.134,0,2.842,2.842,0,0,0-1.1,1.094,3.312,3.312,0,0,0,0,3.148,2.842,2.842,0,0,0,1.1,1.094A3.347,3.347,0,0,0,829.426,213.751Z" transform="translate(-601.89 -151.054)" fill="#00bed8"/>
      <path id="Path_28652" data-name="Path 28652" d="M870,207.48a2.857,2.857,0,0,1,1.288,1.075,3.277,3.277,0,0,1,0,3.3A2.85,2.85,0,0,1,870,212.932a4.8,4.8,0,0,1-1.97.374h-1.965v2.513H864.45v-8.712h3.583a4.8,4.8,0,0,1,1.965.374Zm-.441,4a1.777,1.777,0,0,0,0-2.562,2.5,2.5,0,0,0-1.613-.446h-1.882v3.457h1.882A2.481,2.481,0,0,0,869.557,211.483Z" transform="translate(-632.073 -151.431)" fill="#00bed8"/>
      <path id="Path_28653" data-name="Path 28653" d="M905.557,215.817v-5.771l-2.86,4.774h-.72l-2.874-4.7v5.7H897.56V207.11H898.9l3.457,5.771,3.382-5.771h1.344v8.707Z" transform="translate(-656.283 -151.434)" fill="#00bed8"/>
      <path id="Path_28654" data-name="Path 28654" d="M948.261,214.459v1.357H941.74V207.11h6.355v1.344h-4.739v2.263h4.2v1.344h-4.2v2.4Z" transform="translate(-688.586 -151.434)" fill="#00bed8"/>
      <path id="Path_28655" data-name="Path 28655" d="M980.445,207.11v8.707H979.1l-4.788-5.9v5.9H972.7V207.11h1.331l4.809,5.884V207.11Z" transform="translate(-711.224 -151.434)" fill="#00bed8"/>
      <path id="Path_28656" data-name="Path 28656" d="M1008.934,208.478h-2.884V207.11h7.387v1.368h-2.887v7.339h-1.613Z" transform="translate(-735.609 -151.434)" fill="#00bed8"/>
      <path id="Path_28657" data-name="Path 28657" d="M374.28,91.481h3.957c.132,2.688,2.675,5.4,6.72,5.4,3.906,0,6.1-2.546,6.1-5.22,0-2.941-2.688-4.258-5.223-4.914l-3.9-.968c-6.406-1.535-7.417-5.309-7.417-7.766,0-5.22,4.7-8.731,9.96-8.731,5.309,0,9.567,3.379,9.567,8.777h-3.976c0-3.027-2.492-5.089-5.739-5.089-3.027,0-5.82,2.016-5.82,5,0,1.054.349,3.159,4.387,4.212l3.946,1.054c5.134,1.36,8.2,3.992,8.2,8.293,0,4.694-3.817,9.038-10.091,9.038C378.578,100.565,374.323,96.178,374.28,91.481Z" transform="translate(-273.668 -50.655)" fill="#1f3d6e"/>
      <path id="Path_28658" data-name="Path 28658" d="M466.67,84.99a15.314,15.314,0,1,1,15.269,15.575A15.434,15.434,0,0,1,466.67,84.99Zm26.631,0c0-6.495-4.914-12.024-11.363-12.024-6.363,0-11.29,5.53-11.29,12.024,0,6.452,4.914,11.89,11.29,11.89C488.388,96.893,493.3,91.438,493.3,84.99Z" transform="translate(-341.222 -50.655)" fill="#1f3d6e"/>
      <path id="Path_28659" data-name="Path 28659" d="M615.985,71.24c8.6,0,13.645,6.581,13.645,15.183,0,8.556-5.046,15.054-13.645,15.054H604.27V71.24Zm0,26.545c6.363,0,9.653-4.914,9.653-11.363s-3.29-11.484-9.653-11.484h-7.723V97.788Z" transform="translate(-441.833 -52.088)" fill="#1f3d6e"/>
      <path id="Path_28660" data-name="Path 28660" d="M726.729,97.788h14.3v3.683H722.78V71.24h17.814v3.7H726.729v9.828h12.1V88.5h-12.1Z" transform="translate(-528.486 -52.088)" fill="#1f3d6e"/>
      <path id="Path_28661" data-name="Path 28661" d="M804.07,84.989a15.477,15.477,0,0,1,15.322-15.71,15.014,15.014,0,0,1,10.169,3.957L826.8,75.818a11.272,11.272,0,0,0-7.422-2.849c-6.363,0-11.32,5.529-11.32,12.024s4.965,11.9,11.32,11.9c5.441,0,9.917-3.685,9.917-8.513h-8.769V84.9h13.172c0,10.575-5.7,15.664-14.3,15.664A15.389,15.389,0,0,1,804.07,84.989Z" transform="translate(-587.924 -50.655)" fill="#1f3d6e"/>
      <path id="Path_28662" data-name="Path 28662" d="M955.664,75.829l-10.543-6.086a3.494,3.494,0,0,0-3.473,0l-10.511,6.081a3.435,3.435,0,0,0-1.718,3.016V91.007a3.438,3.438,0,0,0,1.715,3.013l10.538,6.083a3.479,3.479,0,0,0,3.47,0L955.68,94.02a3.494,3.494,0,0,0,1.737-3.011V78.843a3.5,3.5,0,0,0-1.753-3.013Zm-5.215,5.019V89l-7.035,4.073L936.376,89v-8.15l7.038-4.07Z" transform="translate(-679.578 -50.656)" fill="#00bed8"/>
      <path id="Path_28663" data-name="Path 28663" d="M166.59,51.133V64.179l11.258,6.516,11.261-6.516V51.133L177.848,44.62Z" transform="translate(-121.808 -32.624)" fill="none"/>
      <path id="Path_28664" data-name="Path 28664" d="M41.41,123.5v13.046l11.261,6.513,11.258-6.513V123.5L52.671,116.99Z" transform="translate(-30.278 -85.54)" fill="none"/>
      <path id="Path_28665" data-name="Path 28665" d="M33.646,87.673V78.02L25.125,73.1a5.591,5.591,0,0,0-5.559,0L2.746,82.829A5.492,5.492,0,0,0,0,87.657v19.468a5.5,5.5,0,0,0,2.742,4.823l16.847,9.736a5.567,5.567,0,0,0,5.554,0L42,111.949a5.586,5.586,0,0,0,2.777-4.82V97.342L36.391,92.5a5.5,5.5,0,0,1-2.745-4.831Zm0,16.242-11.255,6.519L11.13,103.915V90.869l11.261-6.511,11.258,6.513Z" transform="translate(0.002 -52.905)" fill="#1f3d6e"/>
      <path id="Path_28666" data-name="Path 28666" d="M167.166,10.479,150.3.734a5.583,5.583,0,0,0-5.559,0l-16.82,9.745a5.492,5.492,0,0,0-2.75,4.823v9.806l8.349,4.817a5.589,5.589,0,0,1,2.785,4.82v9.677l8.457,4.887a5.554,5.554,0,0,0,5.551,0l16.863-9.734a5.583,5.583,0,0,0,2.78-4.82V15.293A5.589,5.589,0,0,0,167.166,10.479Zm-8.333,21.075L147.572,38.07l-11.258-6.516V18.5l11.258-6.513L158.833,18.5Z" transform="translate(-91.521 0.007)" fill="#00bed8"/>
      <path id="Path_28667" data-name="Path 28667" d="M133.518,98.237l-8.349-4.817v9.653a5.5,5.5,0,0,0,2.745,4.82l8.39,4.839v-9.677A5.589,5.589,0,0,0,133.518,98.237Z" transform="translate(-91.521 -68.306)" fill="#00bed8"/>
      <path id="Path_28668" data-name="Path 28668" d="M133.518,98.237l-8.349-4.817v9.653a5.5,5.5,0,0,0,2.745,4.82l8.39,4.839v-9.677A5.589,5.589,0,0,0,133.518,98.237Z" transform="translate(-91.521 -68.306)" fill="#1f3d6e" opacity="0.5"/>
    </g>
  </g>
</svg>
